<svg width="10" height="10" viewBox="0 0 10 10" fill="none" xmlns="http://www.w3.org/2000/svg">
<path fill-rule="evenodd" clip-rule="evenodd" d="M5.38911 0.803711C5.38911 0.803711 5.56257 1.01167 5.74889 1.23505C6.01277 1.55132 6.46548 1.65141 6.84462 1.47755C7.11249 1.35468 7.36175 1.24035 7.36175 1.24035C7.36175 1.24035 7.42499 1.50062 7.49295 1.7803C7.58914 2.17622 7.95217 2.45707 8.37163 2.45987C8.66788 2.46192 8.94373 2.46369 8.94373 2.46369C8.94373 2.46369 8.88419 2.72484 8.82036 3.0054C8.72993 3.40265 8.93132 3.80842 9.30794 3.98743C9.57404 4.11382 9.82167 4.23154 9.82167 4.23154C9.82167 4.23154 9.65117 4.44184 9.4681 4.66773C9.20895 4.98753 9.20895 5.43783 9.4681 5.75763C9.65117 5.98351 9.82167 6.19382 9.82167 6.19382C9.82167 6.19382 9.57404 6.31154 9.30794 6.43793C8.93132 6.61693 8.72993 7.02271 8.82036 7.41995C8.88419 7.70051 8.94373 7.96167 8.94373 7.96167C8.94373 7.96167 8.66788 7.96343 8.37163 7.96549C7.95217 7.96828 7.58914 8.24913 7.49295 8.64506C7.42499 8.92473 7.36175 9.18501 7.36175 9.18501C7.36175 9.18501 7.11249 9.07067 6.84462 8.94781C6.46548 8.77395 6.01277 8.87403 5.74889 9.1903C5.56257 9.41369 5.38911 9.62164 5.38911 9.62164C5.38911 9.62164 5.21565 9.41369 5.02933 9.1903C4.76545 8.87403 4.31273 8.77395 3.9336 8.94781C3.66573 9.07067 3.41647 9.18501 3.41647 9.18501C3.41647 9.18501 3.35323 8.92473 3.28526 8.64506C3.18908 8.24913 2.82605 7.96828 2.40658 7.96549C2.11034 7.96343 1.83449 7.96167 1.83449 7.96167C1.83449 7.96167 1.89403 7.70051 1.95786 7.41995C2.04828 7.02271 1.8469 6.61693 1.47028 6.43793C1.20418 6.31154 0.956543 6.19382 0.956543 6.19382C0.956543 6.19382 1.12705 5.98351 1.31011 5.75763C1.56927 5.43783 1.56927 4.98753 1.31011 4.66773C1.12705 4.44184 0.956543 4.23154 0.956543 4.23154C0.956543 4.23154 1.20418 4.11382 1.47028 3.98743C1.8469 3.80842 2.04828 3.40265 1.95786 3.0054C1.89403 2.72484 1.83449 2.46369 1.83449 2.46369C1.83449 2.46369 2.11034 2.46192 2.40658 2.45987C2.82605 2.45707 3.18908 2.17622 3.28526 1.7803C3.35323 1.50062 3.41647 1.24035 3.41647 1.24035C3.41647 1.24035 3.66573 1.35468 3.9336 1.47755C4.31273 1.65141 4.76545 1.55132 5.02933 1.23505C5.21565 1.01167 5.38911 0.803711 5.38911 0.803711ZM5.38911 1.97944C3.549 1.97944 2.05493 3.42822 2.05493 5.21268C2.05493 6.99713 3.549 8.44592 5.38911 8.44592C7.22921 8.44592 8.72328 6.99713 8.72328 5.21268C8.72328 3.42822 7.22921 1.97944 5.38911 1.97944ZM5.38911 2.27337C7.06196 2.27337 8.4201 3.59047 8.4201 5.21268C8.4201 6.83488 7.06196 8.15199 5.38911 8.15199C3.71626 8.15199 2.35812 6.83488 2.35812 5.21268C2.35812 3.59047 3.71626 2.27337 5.38911 2.27337Z" fill="#1E1E1E"/>
</svg>
