<svg width="347" height="325" viewBox="0 0 347 325" fill="none" xmlns="http://www.w3.org/2000/svg">
<g filter="url(#filter0_d_278_1713)">
<path d="M316.247 30.8677C298.418 11.8897 273.786 0.798761 247.785 0.0414763C221.784 -0.715808 196.551 8.92282 177.652 26.8311L173.363 30.8904C136.221 -8.58179 74.1759 -10.4106 34.7821 26.8056C-4.61178 64.0218 -6.43696 126.19 30.7054 165.662L40.3617 175.915C36.2844 185.374 37.5874 196.298 43.7746 204.527C49.9618 212.757 60.0811 217.026 70.2798 215.71C68.5531 224.715 71.2518 234.003 77.5327 240.672C83.8137 247.341 92.9113 250.579 101.983 249.373C100.257 258.377 102.955 267.663 109.235 274.331C115.515 280.999 124.611 284.236 133.681 283.03C131.434 295.259 137.284 307.549 148.181 313.496C159.079 319.443 172.557 317.7 181.59 309.175C213.836 278.671 212.825 280.194 215.87 275.053C225.302 279.703 236.521 278.781 245.07 272.653C253.619 266.525 258.113 256.184 256.767 245.738C265.752 247.426 275.001 244.7 281.644 238.408C288.288 232.115 291.523 223.016 290.346 213.932C302.622 216.191 314.948 210.242 320.835 199.215C326.723 188.188 324.822 174.612 316.134 165.634C351.912 127.881 351.961 68.6805 316.247 30.8677ZM54.0692 199.291C47.4678 192.263 47.7862 181.208 54.7812 174.573L84.1625 146.775C91.1883 140.273 102.129 140.65 108.692 147.621C115.256 154.591 114.995 165.557 108.108 172.207L78.727 200.005C71.7179 206.621 60.6857 206.302 54.0692 199.291ZM85.7729 232.955C79.1651 225.929 79.4837 214.869 86.4848 208.236L115.866 180.439C122.873 173.815 133.913 174.136 140.524 181.158C147.135 188.179 146.813 199.24 139.806 205.864L110.425 233.668C103.408 240.27 92.3822 239.938 85.7729 232.926V232.955ZM117.471 266.612C110.871 259.584 111.192 248.531 118.188 241.9L147.57 214.102C154.622 207.898 165.308 208.397 171.754 215.231C178.199 222.064 178.094 232.783 171.516 239.488L142.134 267.286C135.13 273.915 124.088 273.601 117.471 266.584V266.612ZM173.832 300.989C169.299 305.275 162.829 306.812 156.858 305.022C150.887 303.231 146.323 298.385 144.885 292.309C143.447 286.232 145.353 279.849 149.886 275.563L179.268 247.759C186.294 241.257 197.234 241.634 203.798 248.605C210.361 255.575 210.1 266.541 203.214 273.191L173.832 300.989ZM307.478 198.419C304.119 201.611 299.63 203.33 295.004 203.196C290.377 203.062 285.995 201.086 282.826 197.706L207.53 117.766C205.388 115.491 201.811 115.387 199.541 117.534C197.271 119.68 197.167 123.264 199.309 125.539L274.622 205.474C278.9 210.015 280.436 216.498 278.65 222.481C276.865 228.464 272.03 233.038 265.966 234.48C259.902 235.922 253.53 234.014 249.252 229.473L173.945 149.527C172.559 148.055 170.495 147.436 168.531 147.903C166.566 148.37 164.999 149.852 164.42 151.79C163.841 153.728 164.338 155.829 165.724 157.3L241.008 237.223C246.953 243.53 247.375 253.253 242 260.053C236.624 266.853 227.082 268.668 219.594 264.314C220.766 256.226 218.427 248.022 213.167 241.776C207.907 235.53 200.231 231.839 192.077 231.635C185.862 231.471 188.122 233.826 188.28 227.599C188.505 219.962 185.691 212.548 180.458 206.991C175.224 201.434 168.001 198.19 160.379 197.972C154.164 197.774 156.395 200.237 156.582 193.936C156.804 186.298 153.988 178.886 148.754 173.329C143.52 167.773 136.297 164.528 128.675 164.309C122.42 164.133 124.692 166.625 124.878 160.272C125.183 148.642 118.483 137.968 107.888 133.206C97.2938 128.445 84.8816 130.53 76.416 138.493C36.0167 176.702 49.9558 163.533 46.9443 166.381L38.9322 157.889C6.07589 122.968 7.69364 67.9703 42.5455 35.0487C77.3974 2.12712 132.286 3.74809 165.142 38.6692L118.866 82.4552C114.478 86.6712 111.895 92.4298 111.662 98.5168C111.097 121.769 145.615 136.409 166.707 116.407L208.881 76.5276C209.97 75.4957 211.424 74.9398 212.922 74.9823C214.421 75.0248 215.841 75.6621 216.87 76.7541C227.956 88.5243 297.556 162.429 308.19 173.713C311.367 177.083 313.077 181.58 312.943 186.214C312.81 190.848 310.843 195.239 307.478 198.419ZM308.444 157.487L225.086 68.9809C221.999 65.7052 217.741 63.7921 213.247 63.6626C208.753 63.5331 204.392 65.1977 201.123 68.2901L158.944 108.181C154.464 112.418 148.485 114.692 142.328 114.502C136.171 114.312 130.343 111.673 126.133 107.168C124.013 104.916 122.874 101.911 122.969 98.8171C123.063 95.723 124.382 92.7937 126.636 90.6757L185.398 35.0629C219.43 2.78157 272.898 3.42076 306.152 36.5064C339.406 69.5921 340.421 123.16 308.444 157.487Z" fill="black"/>
</g>
<defs>
<filter id="filter0_d_278_1713" x="0" y="0" width="347" height="325" filterUnits="userSpaceOnUse" color-interpolation-filters="sRGB">
<feFlood flood-opacity="0" result="BackgroundImageFix"/>
<feColorMatrix in="SourceAlpha" type="matrix" values="0 0 0 0 0 0 0 0 0 0 0 0 0 0 0 0 0 0 127 0" result="hardAlpha"/>
<feOffset dy="4"/>
<feGaussianBlur stdDeviation="2"/>
<feComposite in2="hardAlpha" operator="out"/>
<feColorMatrix type="matrix" values="0 0 0 0 0 0 0 0 0 0 0 0 0 0 0 0 0 0 0.36 0"/>
<feBlend mode="normal" in2="BackgroundImageFix" result="effect1_dropShadow_278_1713"/>
<feBlend mode="normal" in="SourceGraphic" in2="effect1_dropShadow_278_1713" result="shape"/>
</filter>
</defs>
</svg>
