<svg width="60" height="52" viewBox="0 0 60 52" fill="currentColor" xmlns="http://www.w3.org/2000/svg">
<path d="M55.2649 5.68142C52.1093 2.60927 47.7497 0.813873 43.1478 0.691284C38.5459 0.568696 34.0798 2.12899 30.7348 5.02797L29.9758 5.68508C23.4019 -0.704645 12.4205 -1.00069 5.44815 5.02384C-1.52421 11.0484 -1.84725 21.1121 4.72662 27.5019L6.4357 29.1616C5.71406 30.6928 5.94468 32.4611 7.03975 33.7934C8.13483 35.1256 9.92586 35.8167 11.7309 35.6035C11.4253 37.0613 11.903 38.5648 13.0146 39.6444C14.1263 40.724 15.7365 41.2481 17.3422 41.0529C17.0366 42.5104 17.5141 44.0137 18.6256 45.0931C19.7371 46.1726 21.347 46.6966 22.9525 46.5014C22.5547 48.4809 23.59 50.4705 25.5188 51.4332C27.4476 52.3959 29.833 52.1137 31.4319 50.7337C37.1391 45.7957 36.9601 46.0422 37.4991 45.2101C39.1684 45.9628 41.1541 45.8135 42.6672 44.8215C44.1803 43.8295 44.9758 42.1555 44.7375 40.4645C46.3278 40.7377 47.9648 40.2966 49.1406 39.2779C50.3164 38.2593 50.889 36.7863 50.6807 35.3158C52.8534 35.6815 55.035 34.7184 56.077 32.9333C57.1191 31.1483 56.7827 28.9507 55.245 27.4973C61.5773 21.3859 61.5861 11.8025 55.2649 5.68142ZM8.86181 32.9457C7.69342 31.808 7.74977 30.0185 8.98782 28.9444L14.1881 24.4445C15.4316 23.3919 17.368 23.4529 18.5296 24.5813C19.6913 25.7097 19.6452 27.4848 18.4263 28.5613L13.226 33.0612C11.9855 34.1323 10.0329 34.0806 8.86181 32.9457ZM14.4731 38.3951C13.3036 37.2578 13.3599 35.4674 14.5991 34.3938L19.7993 29.8939C21.0395 28.8216 22.9934 28.8737 24.1635 30.0103C25.3336 31.1468 25.2767 32.9375 24.0365 34.0098L18.8363 38.5106C17.5943 39.5793 15.6429 39.5256 14.4731 38.3905V38.3951ZM20.0833 43.8436C18.9153 42.706 18.9721 40.9166 20.2103 39.8432L25.4106 35.3433C26.6587 34.3391 28.5501 34.4198 29.6909 35.526C30.8318 36.6322 30.8131 38.3673 29.6488 39.4527L24.4485 43.9527C23.2088 45.0258 21.2546 44.975 20.0833 43.839V43.8436ZM30.0588 49.4084C29.2565 50.1023 28.1113 50.3511 27.0545 50.0613C25.9977 49.7715 25.1899 48.987 24.9354 48.0034C24.6809 47.0197 25.0183 45.9864 25.8206 45.2925L31.0208 40.7917C32.2643 39.7391 34.2007 39.8001 35.3624 40.9285C36.5241 42.0569 36.478 43.8321 35.259 44.9085L30.0588 49.4084ZM53.7129 32.8046C53.1185 33.3212 52.324 33.5995 51.5051 33.5778C50.6862 33.5561 49.9105 33.2363 49.3497 32.6891L36.0231 19.7484C35.6439 19.3802 35.0108 19.3634 34.609 19.7109C34.2072 20.0584 34.1888 20.6385 34.568 21.0068L47.8976 33.9465C48.6549 34.6816 48.9267 35.7311 48.6107 36.6996C48.2947 37.6682 47.4389 38.4086 46.3656 38.6421C45.2923 38.8756 44.1647 38.5666 43.4074 37.8315L30.0788 24.8899C29.8335 24.6517 29.4682 24.5515 29.1205 24.6271C28.7727 24.7026 28.4954 24.9425 28.3929 25.2562C28.2905 25.57 28.3784 25.91 28.6237 26.1482L41.9483 39.0862C43.0005 40.107 43.0753 41.681 42.1239 42.7818C41.1725 43.8826 39.4835 44.1764 38.1582 43.4715C38.3657 42.1623 37.9516 40.8343 37.0207 39.8232C36.0898 38.812 34.7311 38.2145 33.2879 38.1816C32.1879 38.155 32.5879 38.5363 32.6159 37.5281C32.6557 36.2919 32.1577 35.0918 31.2314 34.1922C30.3052 33.2926 29.0267 32.7674 27.6777 32.7322C26.5776 32.7001 26.9726 33.0988 27.0056 32.0788C27.0449 30.8425 26.5466 29.6425 25.6202 28.743C24.6939 27.8436 23.4155 27.3183 22.0664 27.2828C20.9594 27.2544 21.3614 27.6577 21.3944 26.6294C21.4484 24.7467 20.2624 23.0187 18.3873 22.2479C16.5122 21.4772 14.3153 21.8147 12.817 23.1037C5.66667 29.289 8.13378 27.1573 7.60075 27.6183L6.18269 26.2435C0.367415 20.5905 0.653741 11.6876 6.82222 6.35824C12.9907 1.02891 22.7054 1.29131 28.5207 6.94432L20.3303 14.0324C19.5537 14.7149 19.0965 15.647 19.0553 16.6324C18.9553 20.3964 25.0646 22.7664 28.7977 19.5285L36.2621 13.0728C36.4549 12.9058 36.7122 12.8158 36.9774 12.8227C37.2426 12.8295 37.494 12.9327 37.6761 13.1095C39.6382 15.0148 51.9568 26.9785 53.8389 28.8051C54.4012 29.3507 54.7038 30.0786 54.6802 30.8288C54.6566 31.5789 54.3086 32.2897 53.7129 32.8046ZM53.8839 26.1785L39.1302 11.8512C38.584 11.3209 37.8303 11.0112 37.0349 10.9902C36.2395 10.9693 35.4676 11.2387 34.889 11.7393L27.4237 18.1969C26.6308 18.8827 25.5726 19.2509 24.4829 19.2201C23.3931 19.1894 22.3616 18.7621 21.6164 18.0328C21.2412 17.6683 21.0397 17.1819 21.0564 16.681C21.0731 16.1802 21.3066 15.706 21.7054 15.3631L32.1059 6.36053C38.1293 1.13485 47.5926 1.23832 53.4782 6.59421C59.3638 11.9501 59.5435 20.6217 53.8839 26.1785Z"/>
</svg>
