<svg width="32" height="32" viewBox="0 0 32 32" fill="none" xmlns="http://www.w3.org/2000/svg">
<path d="M15.5 12.3C14.3789 12.3 13.3036 12.7425 12.5109 13.5302C11.7181 14.3178 11.2727 15.3861 11.2727 16.5C11.2727 17.6139 11.7181 18.6822 12.5109 19.4698C13.3036 20.2575 14.3789 20.7 15.5 20.7C16.6211 20.7 17.6964 20.2575 18.4891 19.4698C19.2819 18.6822 19.7273 17.6139 19.7273 16.5C19.7273 15.3861 19.2819 14.3178 18.4891 13.5302C17.6964 12.7425 16.6211 12.3 15.5 12.3ZM15.5 23.5C13.6314 23.5 11.8394 22.7625 10.5181 21.4497C9.19683 20.137 8.45455 18.3565 8.45455 16.5C8.45455 14.6435 9.19683 12.863 10.5181 11.5503C11.8394 10.2375 13.6314 9.5 15.5 9.5C17.3686 9.5 19.1606 10.2375 20.4819 11.5503C21.8032 12.863 22.5455 14.6435 22.5455 16.5C22.5455 18.3565 21.8032 20.137 20.4819 21.4497C19.1606 22.7625 17.3686 23.5 15.5 23.5ZM15.5 6C8.45455 6 2.43773 10.354 0 16.5C2.43773 22.646 8.45455 27 15.5 27C22.5455 27 28.5623 22.646 31 16.5C28.5623 10.354 22.5455 6 15.5 6Z" fill="#1E1E1E"/>
</svg>
