<svg width="28" height="28" viewBox="0 0 28 28" fill="none" xmlns="http://www.w3.org/2000/svg">
<g clip-path="url(#clip0_1115_2453)">
<path d="M19.8338 14.0004C19.8338 17.222 17.222 19.8338 14.0004 19.8338C10.7787 19.8338 8.16699 17.222 8.16699 14.0004C8.16699 10.7787 10.7787 8.16699 14.0004 8.16699C17.222 8.16699 19.8338 10.7787 19.8338 14.0004Z" fill="#1E1E1E"/>
<path d="M26.8334 12.8334H25.6072C25.0588 7.33026 20.6697 2.94116 15.1666 2.39279V1.1666C15.1666 0.522736 14.6451 0 14 0C13.3549 0 12.8334 0.522736 12.8334 1.1666V2.39279C7.33026 2.94116 2.94116 7.33026 2.39279 12.8334H1.1666C0.521454 12.8334 0 13.3559 0 14C0 14.6441 0.521454 15.1666 1.1666 15.1666H2.39279C2.94223 20.6697 7.33026 25.0588 12.8334 25.6072V26.8334C12.8334 27.4773 13.3549 28 14 28C14.6451 28 15.1666 27.4773 15.1666 26.8334V25.6072C20.6697 25.0578 25.0588 20.6697 25.6072 15.1666H26.8334C27.4785 15.1666 28 14.6441 28 14C28 13.3559 27.4785 12.8334 26.8334 12.8334ZM15.1504 23.2552C15.1083 22.6496 14.6172 22.1666 14 22.1666C13.3828 22.1666 12.8917 22.6496 12.8496 23.2552C8.62396 22.7325 5.26859 19.3771 4.74606 15.1514C5.35147 15.1083 5.8334 14.6161 5.8334 14C5.8334 13.3839 5.35147 12.8917 4.74478 12.8496C5.26752 8.62396 8.62289 5.26859 12.8486 4.74606C12.8917 5.3504 13.3828 5.8334 14 5.8334C14.6172 5.8334 15.1083 5.3504 15.1504 4.74478C19.376 5.26752 22.7314 8.62289 23.2539 12.8486C22.6485 12.8917 22.1666 13.3839 22.1666 14C22.1666 14.6161 22.6485 15.1083 23.2552 15.1504C22.7314 19.3771 19.3771 22.7314 15.1504 23.2552Z" fill="#1E1E1E"/>
</g>
<defs>
<clipPath id="clip0_1115_2453">
<rect width="28" height="28" fill="white"/>
</clipPath>
</defs>
</svg>
