<svg width="32" height="32" viewBox="0 0 32 32" fill="none" xmlns="http://www.w3.org/2000/svg">
<g clip-path="url(#clip0_1115_2458)">
<path d="M4.8 9.6C7.44688 9.6 9.6 7.44688 9.6 4.8C9.6 2.15313 7.44688 0 4.8 0C2.15313 0 0 2.15313 0 4.8C0 7.44688 2.15313 9.6 4.8 9.6ZM6.4 8.16797C5.91406 8.39948 5.37292 8.53333 4.8 8.53333C4.22708 8.53333 3.68594 8.39948 3.2 8.16797V6.28255C3.2 6.05339 3.38672 5.86667 3.61589 5.86667C3.82708 5.86667 4.01823 5.74245 4.10339 5.54922C4.1888 5.35625 4.15313 5.13177 4.0112 4.975C3.83255 4.7776 3.73333 4.52526 3.73333 4.26667C3.73333 3.95104 3.87188 3.65339 4.11406 3.45026C4.35781 3.24479 4.66667 3.16042 4.99349 3.21927C5.40469 3.28854 5.75313 3.625 5.84115 4.03828C5.94089 4.49766 5.72422 4.82396 5.58672 4.97708C5.44583 5.13385 5.41068 5.35833 5.49661 5.55052C5.58229 5.74297 5.77344 5.86667 5.98412 5.86667C6.21328 5.86667 6.4 6.05339 6.4 6.28255V8.16797ZM4.8 1.06667C6.85807 1.06667 8.53333 2.74193 8.53333 4.8C8.53333 5.81432 8.12526 6.73385 7.46667 7.40755V6.28255C7.46667 5.76042 7.19531 5.30078 6.78672 5.0362C6.93802 4.65286 6.975 4.23099 6.88438 3.8138C6.70443 2.9724 6.01641 2.31042 5.175 2.16745C4.54661 2.05807 3.91042 2.2276 3.42839 2.63307C2.94453 3.03958 2.66667 3.63464 2.66667 4.26667C2.66667 4.53229 2.71745 4.79245 2.81276 5.0362C2.40469 5.30078 2.13333 5.76094 2.13333 6.28255V7.40755C1.47474 6.73385 1.06667 5.81432 1.06667 4.8C1.06667 2.74193 2.74193 1.06667 4.8 1.06667Z" fill="#1E1E1E"/>
<path d="M27.2004 0C24.5535 0 22.4004 2.15313 22.4004 4.8C22.4004 7.44688 24.5535 9.6 27.2004 9.6C29.8473 9.6 32.0004 7.44688 32.0004 4.8C32.0004 2.15313 29.8473 0 27.2004 0ZM27.2004 8.53333C25.1423 8.53333 23.4671 6.85807 23.4671 4.8C23.4671 2.74193 25.1423 1.06667 27.2004 1.06667C29.2585 1.06667 30.9337 2.74193 30.9337 4.8C30.9337 6.85807 29.2585 8.53333 27.2004 8.53333Z" fill="#1E1E1E"/>
<path d="M4.8 32.0004C7.44688 32.0004 9.6 29.8473 9.6 27.2004C9.6 24.5535 7.44688 22.4004 4.8 22.4004C2.15313 22.4004 0 24.5535 0 27.2004C0 29.8473 2.15313 32.0004 4.8 32.0004ZM4.8 23.4671C6.85807 23.4671 8.53333 25.1423 8.53333 27.2004C8.53333 29.2585 6.85807 30.9337 4.8 30.9337C2.74193 30.9337 1.06667 29.2585 1.06667 27.2004C1.06667 25.1423 2.74193 23.4671 4.8 23.4671Z" fill="#1E1E1E"/>
<path d="M16.0002 11.2002C13.3533 11.2002 11.2002 13.3533 11.2002 16.0002C11.2002 18.6471 13.3533 20.8002 16.0002 20.8002C18.6471 20.8002 20.8002 18.6471 20.8002 16.0002C20.8002 13.3533 18.6471 11.2002 16.0002 11.2002ZM16.0002 19.7335C13.9421 19.7335 12.2669 18.0583 12.2669 16.0002C12.2669 13.9421 13.9421 12.2669 16.0002 12.2669C18.0583 12.2669 19.7335 13.9421 19.7335 16.0002C19.7335 18.0583 18.0583 19.7335 16.0002 19.7335Z" fill="#1E1E1E"/>
<path d="M22.9527 11.0632C22.397 10.2816 21.7186 9.60326 20.9371 9.04753C20.7793 8.93555 20.573 8.9181 20.3991 9.00013L19.0785 9.62669C18.8358 9.50898 18.5868 9.40612 18.334 9.31758L17.8423 7.83268C17.7702 7.61393 17.5665 7.4668 17.3366 7.4668H14.6637C14.4332 7.4668 14.2301 7.61393 14.1574 7.83268L13.6577 9.34154L12.9441 9.63737L11.6012 9.00013C11.4272 8.9181 11.221 8.93555 11.0632 9.04753C10.2816 9.60326 9.60326 10.2816 9.04753 11.0632C8.93503 11.221 8.91758 11.4267 9.00013 11.6012L9.63737 12.9441L9.34102 13.6582L7.83216 14.1579C7.61393 14.2301 7.4668 14.4332 7.4668 14.6637V17.3366C7.4668 17.5671 7.61393 17.7702 7.83268 17.8428L9.34154 18.3426L9.63789 19.0566L9.00065 20.3991C8.9181 20.5736 8.93555 20.7793 9.04753 20.9366C9.60378 21.7186 10.2816 22.397 11.0637 22.9533C11.2215 23.0658 11.4277 23.0832 11.6017 23.0007L12.9447 22.3634L13.6587 22.6598L14.1585 24.1686C14.2301 24.3863 14.4332 24.5335 14.6637 24.5335H17.3366C17.5671 24.5335 17.7702 24.3863 17.8428 24.1676L18.3345 22.6827C18.5874 22.5941 18.8358 22.4913 19.079 22.3736L20.3996 23.0001C20.5736 23.0827 20.7798 23.0652 20.9376 22.9527C21.7191 22.397 22.3975 21.7186 22.9533 20.9371C23.0658 20.7793 23.0832 20.5736 23.0007 20.3991L22.3741 19.0785C22.4918 18.8358 22.5949 18.5868 22.6832 18.334L24.1681 17.8423C24.3863 17.7702 24.5335 17.5671 24.5335 17.3366V14.6637C24.5335 14.4332 24.3863 14.2301 24.1676 14.1574L22.6827 13.6658C22.5941 13.4129 22.4913 13.1645 22.3736 12.9212L23.0001 11.6007C23.0827 11.4267 23.0652 11.221 22.9527 11.0632ZM23.4668 15.0491V16.9512L22.0923 17.4066C21.9283 17.4608 21.8007 17.5915 21.7499 17.7569C21.6384 18.1217 21.4902 18.479 21.3085 18.8204C21.2296 18.9691 21.2251 19.1467 21.2973 19.2993L21.8988 20.5671C21.5121 21.0663 21.0658 21.5121 20.5671 21.8988L19.2993 21.2973C19.1467 21.2246 18.9686 21.2285 18.8204 21.3085C18.479 21.4902 18.1212 21.6384 17.7569 21.7499C17.591 21.8007 17.4603 21.9283 17.4066 22.0923L16.9512 23.4668H15.0491L14.5936 22.0923C14.5452 21.9457 14.4348 21.8267 14.2923 21.7676L13.134 21.2871C12.9941 21.2301 12.8374 21.2332 12.7009 21.2983L11.4332 21.8999C10.934 21.5126 10.4882 21.0668 10.1014 20.5676L10.703 19.3004C10.7676 19.1639 10.7717 19.0066 10.7142 18.8673L10.2337 17.709C10.1746 17.566 10.0556 17.4556 9.90898 17.4077L8.53346 16.9512V15.0491L9.90794 14.5936C10.0546 14.5452 10.1736 14.4348 10.2327 14.2923L10.7132 13.134C10.7707 12.9941 10.7671 12.8368 10.702 12.7009L10.1004 11.4332C10.4871 10.934 10.9335 10.4882 11.4322 10.1014L12.6999 10.703C12.8368 10.7681 12.9936 10.7717 13.1329 10.7142L14.2913 10.2337C14.4342 10.1746 14.5447 10.0556 14.5926 9.90898L15.0491 8.53346H16.9512L17.4066 9.90794C17.4608 10.072 17.5915 10.1996 17.7569 10.2504C18.1217 10.3618 18.479 10.51 18.8204 10.6918C18.9686 10.7707 19.1467 10.7751 19.2993 10.703L20.5671 10.1014C21.0663 10.4882 21.5121 10.9345 21.8988 11.4332L21.2973 12.7009C21.2246 12.8535 21.229 13.0311 21.3085 13.1798C21.4902 13.5212 21.6384 13.879 21.7499 14.2434C21.8007 14.4092 21.9283 14.54 22.0923 14.5936L23.4668 15.0491Z" fill="#1E1E1E"/>
<path d="M15.4668 13.333H16.5335V16.533H15.4668V13.333Z" fill="#1E1E1E"/>
<path d="M15.4668 17.5996H16.5335V18.6663H15.4668V17.5996Z" fill="#1E1E1E"/>
<path d="M27.1996 4.26712C26.9053 4.26712 26.6663 4.02806 26.6663 3.73379C26.6663 3.43952 26.9053 3.20046 27.1996 3.20046H28.2663V2.13379H27.1996C26.3176 2.13379 25.5996 2.85176 25.5996 3.73379C25.5996 4.61582 26.3176 5.33379 27.1996 5.33379C27.4939 5.33379 27.7329 5.57285 27.7329 5.86712C27.7329 6.16139 27.4939 6.40046 27.1996 6.40046H26.1329V7.46712H27.1996C28.0816 7.46712 28.7996 6.74915 28.7996 5.86712C28.7996 4.98509 28.0816 4.26712 27.1996 4.26712Z" fill="#1E1E1E"/>
<path d="M2.66699 27.7334H3.73366V29.3334H2.66699V27.7334Z" fill="#1E1E1E"/>
<path d="M4.2666 26.1338H5.33327V29.3338H4.2666V26.1338Z" fill="#1E1E1E"/>
<path d="M5.86621 25.0664H6.93288V29.3331H5.86621V25.0664Z" fill="#1E1E1E"/>
<path d="M27.2004 22.4004C24.5535 22.4004 22.4004 24.5535 22.4004 27.2004C22.4004 29.8473 24.5535 32.0004 27.2004 32.0004C29.8473 32.0004 32.0004 29.8473 32.0004 27.2004C32.0004 24.5535 29.8473 22.4004 27.2004 22.4004ZM30.891 27.7337C30.6559 29.3652 29.3652 30.6559 27.7337 30.891V29.8671H26.6671V30.891C25.0355 30.6559 23.7449 29.3652 23.5098 27.7337H24.5337V26.6671H23.5098C23.7449 25.0355 25.0355 23.7449 26.6671 23.5098V24.5337H27.7337V23.5098C29.3652 23.7449 30.6559 25.0355 30.891 26.6671H29.8671V27.7337H30.891Z" fill="#1E1E1E"/>
<path d="M28.956 24.6895L27.4724 26.1733C27.3849 26.1496 27.2948 26.1332 27.1997 26.1332C27.1047 26.1332 27.0146 26.1496 26.9271 26.1733L25.9768 25.2228L25.2227 25.977L26.1732 26.9272C26.1495 27.0147 26.1331 27.1048 26.1331 27.1999C26.1331 27.7882 26.6115 28.2665 27.1997 28.2665C27.788 28.2665 28.2664 27.7882 28.2664 27.1999C28.2664 27.1048 28.25 27.0147 28.2263 26.9272L29.7102 25.4436L28.956 24.6895Z" fill="#1E1E1E"/>
<path d="M26.0168 15.4668H25.5996V16.5335H26.0168C27.8454 16.5335 29.3329 18.021 29.3329 19.8496V20.046L28.6434 19.3564L27.8892 20.1105L29.4892 21.7105C29.5931 21.8145 29.7298 21.8668 29.8663 21.8668C30.0027 21.8668 30.1395 21.8145 30.2434 21.7105L31.8434 20.1105L31.0892 19.3564L30.3996 20.046V19.8496C30.3996 17.4332 28.4332 15.4668 26.0168 15.4668Z" fill="#1E1E1E"/>
<path d="M16.533 26.0168V25.5996H15.4663V26.0168C15.4663 27.8454 13.9788 29.3329 12.1502 29.3329H11.9538L12.6434 28.6434L11.8893 27.8892L10.2893 29.4892C10.0807 29.6978 10.0807 30.0348 10.2893 30.2434L11.8893 31.8434L12.6434 31.0892L11.9538 30.3996H12.1502C14.5666 30.3996 16.533 28.4332 16.533 26.0168Z" fill="#1E1E1E"/>
<path d="M5.98281 16.533H6.4V15.4663H5.98281C4.15417 15.4663 2.66667 13.9788 2.66667 12.1502V11.9538L3.35625 12.6434L4.11042 11.8893L2.51042 10.2893C2.30182 10.0807 1.96484 10.0807 1.75625 10.2893L0.15625 11.8893L0.910417 12.6434L1.6 11.9538V12.1502C1.6 14.5666 3.56641 16.533 5.98281 16.533Z" fill="#1E1E1E"/>
<path d="M15.4668 6.4H16.5335V5.98281C16.5335 4.15417 18.021 2.66667 19.8496 2.66667H20.046L19.3564 3.35625L20.1105 4.11042L21.7105 2.51042C21.9191 2.30182 21.9191 1.96484 21.7105 1.75625L20.1105 0.15625L19.3564 0.910417L20.046 1.6H19.8496C17.4332 1.6 15.4668 3.56641 15.4668 5.98281V6.4Z" fill="#1E1E1E"/>
</g>
<defs>
<clipPath id="clip0_1115_2458">
<rect width="32" height="32" fill="white"/>
</clipPath>
</defs>
</svg>
