<svg width="32" height="32" viewBox="0 0 32 32" fill="none" xmlns="http://www.w3.org/2000/svg">
<path d="M15.9998 6.37077C17.2041 6.37077 18.1803 5.39452 18.1803 4.19027C18.1803 2.98601 17.2041 2.00977 15.9998 2.00977C14.7956 2.00977 13.8193 2.98601 13.8193 4.19027C13.8193 5.39452 14.7956 6.37077 15.9998 6.37077Z" fill="#1E1E1E"/>
<path d="M19.25 8.47062V12.3206C19.2501 12.5578 19.1608 12.7863 19 12.9606L18.465 13.5206V18.6806C18.4673 18.929 18.3714 19.1682 18.1981 19.3461C18.0249 19.5241 17.7883 19.6263 17.54 19.6306H14.46C14.2117 19.6263 13.9751 19.5241 13.8019 19.3461C13.6286 19.1682 13.5327 18.929 13.535 18.6806V13.5206L13 12.9606C12.8392 12.7863 12.7499 12.5578 12.75 12.3206V8.47062C12.7507 8.26797 12.7914 8.06744 12.87 7.88063C12.9752 7.62693 13.1526 7.40972 13.3801 7.25594C13.6077 7.10217 13.8754 7.0186 14.15 7.01562H17.85C18.1246 7.0186 18.3923 7.10217 18.6199 7.25594C18.8474 7.40972 19.0248 7.62693 19.13 7.88063C19.2086 8.06744 19.2493 8.26797 19.25 8.47062Z" fill="#1E1E1E"/>
<path d="M20.5004 7.33185C21.5453 7.33185 22.3924 6.48477 22.3924 5.43985C22.3924 4.39493 21.5453 3.54785 20.5004 3.54785C19.4555 3.54785 18.6084 4.39493 18.6084 5.43985C18.6084 6.48477 19.4555 7.33185 20.5004 7.33185Z" fill="#1E1E1E"/>
<path d="M11.5004 7.33185C12.5453 7.33185 13.3924 6.48477 13.3924 5.43985C13.3924 4.39493 12.5453 3.54785 11.5004 3.54785C10.4555 3.54785 9.6084 4.39493 9.6084 5.43985C9.6084 6.48477 10.4555 7.33185 11.5004 7.33185Z" fill="#1E1E1E"/>
<path d="M23.2798 9.16988V12.3599C23.2803 12.578 23.196 12.7877 23.0448 12.9449L22.6248 13.3899V17.6249C22.6267 17.7382 22.6061 17.8507 22.5643 17.9561C22.5226 18.0614 22.4604 18.1575 22.3814 18.2388C22.3025 18.3201 22.2083 18.385 22.1042 18.4298C22.0001 18.4746 21.8882 18.4984 21.7748 18.4999H19.4648V13.9199L19.7248 13.6449C20.065 13.288 20.2532 12.8129 20.2498 12.3199V8.46988C20.2505 8.2708 20.2253 8.07247 20.1748 7.87988H22.0298C22.3665 7.88574 22.6871 8.0248 22.9214 8.2666C23.1557 8.5084 23.2846 8.83322 23.2798 9.16988Z" fill="#1E1E1E"/>
<path d="M12.2749 13.6449L12.5349 13.9199V18.4999H10.2249C10.1115 18.4984 9.99963 18.4746 9.89554 18.4298C9.79144 18.385 9.69722 18.3201 9.61825 18.2388C9.53929 18.1575 9.47715 18.0614 9.43538 17.9561C9.39361 17.8507 9.37304 17.7382 9.37485 17.6249V13.3899L8.95485 12.9449C8.80366 12.7877 8.71941 12.578 8.71985 12.3599V9.16988C8.7151 8.83322 8.844 8.5084 9.07831 8.2666C9.31261 8.0248 9.63321 7.88574 9.96985 7.87988H11.8249C11.7744 8.07247 11.7492 8.2708 11.7499 8.46988V12.3199C11.7474 12.8127 11.9355 13.2875 12.2749 13.6449Z" fill="#1E1E1E"/>
<path d="M14.0898 26.4902H7.83984C7.5637 26.4902 7.33984 26.7141 7.33984 26.9902V29.4902C7.33984 29.7664 7.5637 29.9902 7.83984 29.9902H14.0898C14.366 29.9902 14.5898 29.7664 14.5898 29.4902V26.9902C14.5898 26.7141 14.366 26.4902 14.0898 26.4902Z" fill="#1E1E1E"/>
<path d="M13.9151 25.4901H7.84006C7.78506 25.4901 7.73006 25.4951 7.67506 25.5001C7.27506 25.0551 6.25506 24.1101 3.30506 21.2351C2.95703 20.8909 2.7336 20.4405 2.67006 19.9551C2.25011 16.7111 2.33952 13.4215 2.93506 10.2051C2.94632 10.1456 2.97127 10.0896 3.00793 10.0414C3.0446 9.99327 3.09198 9.9543 3.14631 9.92762C3.20065 9.90094 3.26045 9.88727 3.32098 9.88771C3.38151 9.88814 3.44111 9.90266 3.49506 9.93012C4.28854 10.3022 4.91504 10.9564 5.25244 11.7652C5.58983 12.574 5.61394 13.4795 5.32006 14.3051C5.21219 14.6248 5.22284 14.9726 5.35006 15.2851C5.39732 15.5219 5.46422 15.7544 5.55006 15.9801C4.46506 16.2151 4.15006 17.6751 5.00506 18.6401L7.49506 21.4501C7.58277 21.5489 7.70603 21.6089 7.83787 21.617C7.96971 21.6251 8.09939 21.5807 8.19855 21.4934C8.29771 21.4061 8.35828 21.2832 8.36699 21.1514C8.37571 21.0196 8.33187 20.8897 8.24506 20.7901L5.75006 17.9751C5.09006 17.2301 5.95006 16.0951 7.10006 17.2351C7.79506 17.9201 8.52006 18.5751 9.23006 19.2451C9.54506 19.5601 10.0151 19.4851 10.4751 19.5751C11.299 19.7287 12.0571 20.1278 12.6501 20.7201C14.0251 22.0851 13.9401 23.6601 13.9151 25.4901Z" fill="#1E1E1E"/>
<path d="M24.1602 26.4902H17.9102C17.634 26.4902 17.4102 26.7141 17.4102 26.9902V29.4902C17.4102 29.7664 17.634 29.9902 17.9102 29.9902H24.1602C24.4363 29.9902 24.6602 29.7664 24.6602 29.4902V26.9902C24.6602 26.7141 24.4363 26.4902 24.1602 26.4902Z" fill="#1E1E1E"/>
<path d="M29.3297 19.9551C29.2662 20.4405 29.0427 20.8909 28.6947 21.2351C25.7447 24.1101 24.7247 25.0551 24.3297 25.5001H24.3247C24.2697 25.4951 24.2147 25.4901 24.1597 25.4901H18.0847C18.0597 23.6601 17.9747 22.0851 19.3497 20.7201C19.9426 20.1278 20.7008 19.7287 21.5247 19.5751C21.9697 19.4901 22.4597 19.5551 22.7697 19.2451C23.4797 18.5751 24.2047 17.9201 24.8997 17.2351C26.0497 16.0951 26.9097 17.2301 26.2497 17.9751L23.7547 20.7901C23.6679 20.8897 23.6241 21.0196 23.6328 21.1514C23.6415 21.2832 23.7021 21.4061 23.8012 21.4934C23.9004 21.5807 24.0301 21.6251 24.1619 21.617C24.2937 21.6089 24.417 21.5489 24.5047 21.4501L26.9947 18.6401C27.8497 17.6751 27.5347 16.2151 26.4497 15.9801C26.5356 15.7544 26.6025 15.5219 26.6497 15.2851C26.7769 14.9726 26.7876 14.6248 26.6797 14.3051C26.3858 13.4795 26.4099 12.574 26.7473 11.7652C27.0847 10.9564 27.7112 10.3022 28.5047 9.93012C28.5587 9.90266 28.6183 9.88814 28.6788 9.88771C28.7393 9.88727 28.7991 9.90094 28.8535 9.92762C28.9078 9.9543 28.9552 9.99327 28.9918 10.0414C29.0285 10.0896 29.0535 10.1456 29.0647 10.2051C29.6603 13.4215 29.7497 16.7111 29.3297 19.9551Z" fill="#1E1E1E"/>
</svg>
