<svg width="34" height="34" viewBox="0 0 34 34" fill="none" xmlns="http://www.w3.org/2000/svg">
<path d="M16.4189 7.12562C16.4461 7.12569 18.111 5.40902 18.1338 5.39921C16.8956 5.18413 15.5005 4.93418 14.803 4.76562C14.7744 4.94361 14.7823 5.12556 14.8262 5.30039C14.9192 5.69566 15.2564 6.42808 16.4189 7.12562Z" fill="#1E1E1E"/>
<path d="M15.367 9.81032C15.5447 9.92911 15.759 9.98035 15.9712 9.95475C16.1834 9.92916 16.3794 9.82843 16.5238 9.6708C16.7312 9.52946 16.8776 9.31498 16.9336 9.07031C16.9897 8.82563 16.9513 8.56882 16.826 8.35128C16.6639 8.38722 16.4977 8.40091 16.332 8.39199C14.4522 7.51493 13.6295 6.06299 13.6232 5.07868C13.4608 4.98575 13.2736 4.94535 13.0873 4.96305C12.901 4.98074 12.7248 5.05564 12.5827 5.17749L12.3444 5.3868C12.2522 5.46681 12.1773 5.56484 12.1245 5.67486C12.0716 5.78488 12.0418 5.90456 12.0369 6.02653C12.032 6.14851 12.0521 6.27019 12.096 6.3841C12.1399 6.49801 12.2066 6.60173 12.2921 6.68887C12.2921 6.68887 15.3183 9.82281 15.367 9.81032Z" fill="#1E1E1E"/>
<path d="M13.2507 11.8164C13.3012 11.8675 13.3614 11.9081 13.4278 11.9358C13.4941 11.9635 13.5653 11.9777 13.6372 11.9777C13.7091 11.9777 13.7803 11.9635 13.8466 11.9358C13.913 11.9081 13.9732 11.8675 14.0238 11.8164C14.1988 11.6037 14.6937 11.2855 14.6515 10.9619C14.6523 10.8907 14.6388 10.8201 14.6118 10.7543C14.5849 10.6884 14.545 10.6285 14.4946 10.5783C13.7861 9.86736 12.3333 8.40893 11.6289 7.70677C11.5254 7.60612 11.3867 7.5498 11.2423 7.5498C11.098 7.5498 10.9593 7.60612 10.8558 7.70677L10.3849 8.17761C10.3338 8.22818 10.2933 8.28838 10.2656 8.35473C10.2379 8.42108 10.2236 8.49227 10.2236 8.56416C10.2236 8.63606 10.2379 8.70724 10.2656 8.77359C10.2933 8.83995 10.3338 8.90015 10.3849 8.95072L13.2507 11.8164Z" fill="#1E1E1E"/>
<path d="M11.1932 13.8918C11.2967 13.9924 11.4354 14.0487 11.5798 14.0487C11.7241 14.0487 11.8628 13.9924 11.9663 13.8918L12.4372 13.4209C12.4884 13.3704 12.529 13.3102 12.5567 13.2438C12.5845 13.1775 12.5988 13.1063 12.5988 13.0344C12.5988 12.9624 12.5845 12.8912 12.5567 12.8249C12.529 12.7585 12.4884 12.6983 12.4372 12.6478L9.9551 10.1657C9.85159 10.0651 9.71291 10.0088 9.56854 10.0088C9.42417 10.0088 9.28549 10.0651 9.18199 10.1657L8.71697 10.6366C8.66586 10.6872 8.62529 10.7474 8.59761 10.8137C8.56992 10.8801 8.55566 10.9512 8.55566 11.0231C8.55566 11.095 8.56992 11.1662 8.59761 11.2326C8.62529 11.2989 8.66586 11.3591 8.71697 11.4097L11.1932 13.8918Z" fill="#1E1E1E"/>
<path d="M9.12919 15.9552C9.23402 16.0532 9.37219 16.1077 9.51573 16.1077C9.65926 16.1077 9.79743 16.0532 9.90226 15.9552L10.3731 15.4843C10.4738 15.3808 10.5301 15.2422 10.5301 15.0978C10.5301 14.9534 10.4738 14.8147 10.3731 14.7112L9.22218 13.5603C9.11868 13.4596 8.98 13.4033 8.83562 13.4033C8.69125 13.4033 8.55257 13.4596 8.44906 13.5603L7.97823 14.0311C7.87759 14.1346 7.82129 14.2733 7.82129 14.4177C7.82129 14.562 7.87759 14.7007 7.97823 14.8042C7.97823 14.8042 9.05116 15.8762 9.12919 15.9552Z" fill="#1E1E1E"/>
<path d="M29.8172 18.792C29.5566 19.0479 22.1045 26.4967 21.627 26.9764L23.6847 29.0342L31.8749 20.8497L29.8172 18.792Z" fill="#1E1E1E"/>
<path d="M27.7536 19.2102L25.5972 16.9316L19.8193 22.7154L22.0049 24.9594L27.7536 19.2102Z" fill="#1E1E1E"/>
<path d="M2.12793 20.8887L4.18684 18.8356L12.3628 27.0347L10.3039 29.0878L2.12793 20.8887Z" fill="#1E1E1E"/>
<path d="M25.8993 14.9785C26.0667 14.8071 26.1595 14.5764 26.1573 14.3367C26.1551 14.0971 26.0581 13.8681 25.8875 13.6998C25.7169 13.5316 25.4866 13.4377 25.247 13.4387C25.0073 13.4398 24.7779 13.5357 24.6088 13.7055L23.7369 14.6065C23.629 14.7142 23.4832 14.7752 23.3307 14.7765C23.1783 14.7778 23.0315 14.7192 22.9218 14.6133C22.8121 14.5074 22.7484 14.3627 22.7443 14.2104C22.7402 14.058 22.7961 13.9101 22.8999 13.7984L24.1961 12.4557C24.3838 12.2639 24.4923 12.0083 24.4998 11.74C24.5074 11.4717 24.4135 11.2104 24.2368 11.0083C24.0579 10.7995 23.806 10.6669 23.5326 10.6378C23.2593 10.6086 22.985 10.685 22.7661 10.8514C22.7348 10.8781 21.8245 11.7524 21.8245 11.7524C21.7128 11.856 21.565 11.9117 21.4127 11.9075C21.2604 11.9033 21.1159 11.8396 21.0101 11.73C20.9043 11.6204 20.8457 11.4736 20.8469 11.3213C20.8481 11.169 20.909 11.0232 21.0165 10.9153C21.3261 10.6147 22.061 9.908 22.365 9.61325C22.4904 9.48996 22.5766 9.33238 22.6127 9.16028C22.6489 8.98818 22.6334 8.80924 22.5682 8.64592C22.503 8.4826 22.391 8.34219 22.2463 8.2423C22.1015 8.14242 21.9305 8.08751 21.7547 8.08448C21.2098 8.03182 20.6814 8.85444 20.2434 9.24124C20.1357 9.3488 19.9899 9.40967 19.8377 9.41068C19.6855 9.4117 19.5389 9.35279 19.4298 9.24667C19.3206 9.14056 19.2576 8.99575 19.2543 8.84355C19.251 8.69135 19.3077 8.54396 19.4122 8.43323L20.5456 7.26487C20.6735 7.13256 20.7591 6.9653 20.7918 6.78427C20.8246 6.60323 20.8028 6.41656 20.7294 6.2479C20.6559 6.07923 20.5341 5.93615 20.3793 5.83677C20.2244 5.73738 20.0436 5.68617 19.8597 5.68962C19.621 5.69724 19.3934 5.79241 19.2203 5.95699L17.6567 7.53228C18.8447 8.87323 17.6025 11.112 15.8954 11.1246H15.8082C15.7825 11.7471 15.2716 12.2362 14.8491 12.6417C14.5566 12.9333 14.1684 13.1088 13.7563 13.1358C13.7586 13.7883 13.2294 14.2907 12.7913 14.7111C12.4971 15.0069 12.1036 15.183 11.6869 15.2052C11.6909 15.8512 11.1649 16.3575 10.7278 16.7746C10.4216 17.0777 10.0128 17.2548 9.58223 17.271C9.15169 17.2871 8.73077 17.1411 8.40271 16.8618L6.12988 19.1404L12.0008 25.0114L14.8084 22.2852C14.9182 22.1808 15.0638 22.1226 15.2153 22.1224H18.7669C19.0904 21.8093 25.8256 15.0527 25.8993 14.9785Z" fill="#1E1E1E"/>
</svg>
