<svg width="32" height="32" viewBox="0 0 32 32" fill="none" xmlns="http://www.w3.org/2000/svg">
<g clip-path="url(#clip0_1475_1786)">
<path d="M5.67187 11.2959C5.3269 11.2959 5.04688 11.5757 5.04688 11.9207C5.04688 12.2656 5.3269 12.5457 5.67187 12.5457C6.01684 12.5457 6.29687 12.2656 6.29687 11.9207C6.29687 11.5757 6.01684 11.2959 5.67187 11.2959Z" fill="#1E1E1E"/>
<path d="M23.1825 18.7636C23.0656 18.6464 22.9064 18.5805 22.7406 18.5805C22.7343 18.5817 22.494 18.5682 22.2987 18.7636L21.8571 19.2052L20.421 17.7694C23.59 13.3273 23.108 7.19961 19.2055 3.29727C14.8095 -1.09872 7.69375 -1.09946 3.29727 3.29727C-1.09872 7.69302 -1.09946 14.809 3.29727 19.2055C7.19009 23.0985 13.3153 23.598 17.7692 20.421L19.2052 21.8571L18.7636 22.2987C18.5197 22.5426 18.5194 22.9386 18.7636 23.1827L26.6649 31.0834C27.8859 32.305 29.8622 32.3058 31.0834 31.0836C32.3051 29.8629 32.3055 27.8864 31.0834 26.6652L23.1825 18.7636ZM20.089 20.9733L18.7509 19.6351C18.9064 19.4957 19.0585 19.3527 19.2055 19.2055C19.3527 19.0585 19.4957 18.9064 19.6351 18.7511L20.9733 20.0892L20.089 20.9733ZM4.18106 18.3217C0.273346 14.4142 0.272857 8.08901 4.18106 4.18106C8.08852 0.273346 14.4137 0.272857 18.3217 4.18106C22.2206 8.07973 22.2404 14.4035 18.3217 18.3217C14.3588 22.285 8.0353 22.1762 4.18106 18.3217ZM22.7406 20.0892L24.5079 21.8568L21.8568 24.5079L20.0892 22.7406L22.7406 20.0892ZM30.1996 30.1998C29.4672 30.933 28.2819 30.9332 27.549 30.1998L22.7406 25.3917L25.3917 22.7406L30.1998 27.5492C30.9327 28.2814 30.9335 29.4667 30.1996 30.1998Z" fill="#1E1E1E"/>
<path d="M17.4386 5.06506C14.0209 1.64734 8.484 1.64539 5.06482 5.06457C1.65418 8.47595 1.65418 14.0267 5.06482 17.4383C8.48449 20.8578 14.0182 20.858 17.4381 17.4383C20.8495 14.0267 20.8497 8.47619 17.4386 5.06506ZM16.5543 16.5543C13.6234 19.4852 8.88024 19.4859 5.94861 16.5546C3.02527 13.6302 3.02527 8.87243 5.94861 5.94812C8.87805 3.01892 13.6244 3.01819 16.5548 5.94885C19.4786 8.87267 19.4784 13.6302 16.5543 16.5543Z" fill="#1E1E1E"/>
<path d="M11.2513 5.00293C9.58091 5.00293 8.01157 5.65283 6.83238 6.83276C6.14878 7.51636 5.64561 8.32397 5.33702 9.23364C5.22618 9.5603 5.40098 9.91528 5.72789 10.0261C6.05528 10.1372 6.40977 9.96142 6.52061 9.63525C6.76695 8.90893 7.16929 8.26342 7.71616 7.71631C8.65952 6.7727 9.91489 6.25293 11.2513 6.25293C11.5965 6.25293 11.8763 5.97314 11.8763 5.62793C11.8763 5.28271 11.5965 5.00293 11.2513 5.00293Z" fill="#1E1E1E"/>
</g>
<defs>
<clipPath id="clip0_1475_1786">
<rect width="32" height="32" fill="white"/>
</clipPath>
</defs>
</svg>
